# xmcd CD database file
#
# Track frame offsets:
#	150
#	29365
#	48955
#	74245
#	90475
#	108430
#	143110
#	166457
#	191440
#	214075
#	234800
#
# Disc length: 3420 seconds
#
# Revision: 0
# Processed by: cddbd v1.5.2PL0 Copyright (c) Steve Scherf et al.
# Submitted via: CDex 1.51
#
DISCID=950d5a0b
DTITLE=Randy Brecker - 34th and Lex
DYEAR=2003
DGENRE=Jazz
TTITLE0=Randy Brecker - 1.   34th N Lex
TTITLE1=Randy Brecker - 2.   Streeange
TTITLE2=Randy Brecker - 3.   Shanghigh
TTITLE3=Randy Brecker - 4.   All 4 Love
TTITLE4=Randy Brecker - 5.   Let It Go
TTITLE5=Randy Brecker - 6.   Foregone Conclusion
TTITLE6=Randy Brecker - 7.   Hula Dula
TTITLE7=Randy Brecker - 8.   The Fisherman
TTITLE8=Randy Brecker - 9.   Give It Up
TTITLE9=Randy Brecker - 10.  Tokyo Freddie
TTITLE10=Randy Brecker - 11.  The Castle Rocks
EXTD=YEAR: 2003
EXTT0=
EXTT1=
EXTT2=
EXTT3=
EXTT4=
EXTT5=
EXTT6=
EXTT7=
EXTT8=
EXTT9=
EXTT10=
PLAYORDER=
